<svg width="64" height="64" viewBox="0 0 64 64" fill="none" xmlns="http://www.w3.org/2000/svg">
<path d="M0 0V49.6H25.9234C25.061 49.1472 24.2472 48.6152 23.5016 48H1.6V1.6H27.2V12.8H38.4V24.5703C38.9536 24.8343 39.4896 25.1282 40 25.4594V11.6687L28.3313 0H0ZM28.8 2.73125L37.2687 11.2H28.8V2.73125ZM5.6 3.2C5.38783 3.2 5.18434 3.28429 5.03431 3.43431C4.88428 3.58434 4.8 3.78783 4.8 4C4.8 4.21217 4.88428 4.41566 5.03431 4.56569C5.18434 4.71571 5.38783 4.8 5.6 4.8C5.81217 4.8 6.01566 4.71571 6.16569 4.56569C6.31572 4.41566 6.4 4.21217 6.4 4C6.4 3.78783 6.31572 3.58434 6.16569 3.43431C6.01566 3.28429 5.81217 3.2 5.6 3.2ZM5.6 6.4C5.38783 6.4 5.18434 6.48428 5.03431 6.63431C4.88428 6.78434 4.8 6.98783 4.8 7.2C4.8 7.41217 4.88428 7.61566 5.03431 7.76569C5.18434 7.91572 5.38783 8 5.6 8C5.81217 8 6.01566 7.91572 6.16569 7.76569C6.31572 7.61566 6.4 7.41217 6.4 7.2C6.4 6.98783 6.31572 6.78434 6.16569 6.63431C6.01566 6.48428 5.81217 6.4 5.6 6.4ZM5.6 9.6C5.38783 9.6 5.18434 9.68429 5.03431 9.83431C4.88428 9.98434 4.8 10.1878 4.8 10.4C4.8 10.6122 4.88428 10.8157 5.03431 10.9657C5.18434 11.1157 5.38783 11.2 5.6 11.2C5.81217 11.2 6.01566 11.1157 6.16569 10.9657C6.31572 10.8157 6.4 10.6122 6.4 10.4C6.4 10.1878 6.31572 9.98434 6.16569 9.83431C6.01566 9.68429 5.81217 9.6 5.6 9.6ZM5.6 12.8C5.38783 12.8 5.18434 12.8843 5.03431 13.0343C4.88428 13.1843 4.8 13.3878 4.8 13.6C4.8 13.8122 4.88428 14.0157 5.03431 14.1657C5.18434 14.3157 5.38783 14.4 5.6 14.4C5.81217 14.4 6.01566 14.3157 6.16569 14.1657C6.31572 14.0157 6.4 13.8122 6.4 13.6C6.4 13.3878 6.31572 13.1843 6.16569 13.0343C6.01566 12.8843 5.81217 12.8 5.6 12.8ZM5.6 16C5.38783 16 5.18434 16.0843 5.03431 16.2343C4.88428 16.3843 4.8 16.5878 4.8 16.8C4.8 17.0122 4.88428 17.2157 5.03431 17.3657C5.18434 17.5157 5.38783 17.6 5.6 17.6C5.81217 17.6 6.01566 17.5157 6.16569 17.3657C6.31572 17.2157 6.4 17.0122 6.4 16.8C6.4 16.5878 6.31572 16.3843 6.16569 16.2343C6.01566 16.0843 5.81217 16 5.6 16ZM5.6 19.2C5.38783 19.2 5.18434 19.2843 5.03431 19.4343C4.88428 19.5843 4.8 19.7878 4.8 20C4.8 20.2122 4.88428 20.4157 5.03431 20.5657C5.18434 20.7157 5.38783 20.8 5.6 20.8C5.81217 20.8 6.01566 20.7157 6.16569 20.5657C6.31572 20.4157 6.4 20.2122 6.4 20C6.4 19.7878 6.31572 19.5843 6.16569 19.4343C6.01566 19.2843 5.81217 19.2 5.6 19.2ZM10.4 20.8V22.4H32V20.8H10.4ZM5.6 22.4C5.38783 22.4 5.18434 22.4843 5.03431 22.6343C4.88428 22.7843 4.8 22.9878 4.8 23.2C4.8 23.4122 4.88428 23.6157 5.03431 23.7657C5.18434 23.9157 5.38783 24 5.6 24C5.81217 24 6.01566 23.9157 6.16569 23.7657C6.31572 23.6157 6.4 23.4122 6.4 23.2C6.4 22.9878 6.31572 22.7843 6.16569 22.6343C6.01566 22.4843 5.81217 22.4 5.6 22.4ZM5.6 25.6C5.38783 25.6 5.18434 25.6843 5.03431 25.8343C4.88428 25.9843 4.8 26.1878 4.8 26.4C4.8 26.6122 4.88428 26.8157 5.03431 26.9657C5.18434 27.1157 5.38783 27.2 5.6 27.2C5.81217 27.2 6.01566 27.1157 6.16569 26.9657C6.31572 26.8157 6.4 26.6122 6.4 26.4C6.4 26.1878 6.31572 25.9843 6.16569 25.8343C6.01566 25.6843 5.81217 25.6 5.6 25.6ZM10.4 25.6V27.2H22.6203C23.2219 26.612 23.8711 26.0728 24.5703 25.6H10.4ZM32.4 25.6C26.003 25.6 20.8 30.803 20.8 37.2C20.8 43.597 26.003 48.8 32.4 48.8C35.3111 48.8 37.9675 47.7146 40.0063 45.9375L42.8844 48.8156L42.8547 48.8453C42.2499 49.4493 42.2499 50.4327 42.8547 51.0375L48.1625 56.3469C48.4553 56.6397 48.8458 56.8 49.2594 56.8C49.673 56.8 50.0627 56.6381 50.3547 56.3453L51.5453 55.1547C52.1501 54.5507 52.1509 53.5665 51.5469 52.9625L46.2375 47.6547C45.6503 47.0691 44.6293 47.0691 44.0453 47.6547L44.0156 47.6844L41.1375 44.8063C42.9146 42.7675 44 40.1111 44 37.2C44 30.803 38.797 25.6 32.4 25.6ZM32.4 27.2C37.9323 27.2 42.4 31.6677 42.4 37.2C42.4 42.7323 37.9323 47.2 32.4 47.2C26.8677 47.2 22.4 42.7323 22.4 37.2C22.4 31.6677 26.8677 27.2 32.4 27.2ZM5.6 28.8C5.38783 28.8 5.18434 28.8843 5.03431 29.0343C4.88428 29.1843 4.8 29.3878 4.8 29.6C4.8 29.8122 4.88428 30.0157 5.03431 30.1657C5.18434 30.3157 5.38783 30.4 5.6 30.4C5.81217 30.4 6.01566 30.3157 6.16569 30.1657C6.31572 30.0157 6.4 29.8122 6.4 29.6C6.4 29.3878 6.31572 29.1843 6.16569 29.0343C6.01566 28.8843 5.81217 28.8 5.6 28.8ZM10.4 30.4V32H19.4125C19.6341 31.4488 19.8855 30.9144 20.1719 30.4H10.4ZM5.6 32C5.38783 32 5.18434 32.0843 5.03431 32.2343C4.88428 32.3843 4.8 32.5878 4.8 32.8C4.8 33.0122 4.88428 33.2157 5.03431 33.3657C5.18434 33.5157 5.38783 33.6 5.6 33.6C5.81217 33.6 6.01566 33.5157 6.16569 33.3657C6.31572 33.2157 6.4 33.0122 6.4 32.8C6.4 32.5878 6.31572 32.3843 6.16569 32.2343C6.01566 32.0843 5.81217 32 5.6 32ZM25.8156 32C25.0804 32.9288 24.5412 34.0152 24.25 35.2H36.8V32H25.8156ZM5.6 35.2C5.38783 35.2 5.18434 35.2843 5.03431 35.4343C4.88428 35.5843 4.8 35.7878 4.8 36C4.8 36.2122 4.88428 36.4157 5.03431 36.5657C5.18434 36.7157 5.38783 36.8 5.6 36.8C5.81217 36.8 6.01566 36.7157 6.16569 36.5657C6.31572 36.4157 6.4 36.2122 6.4 36C6.4 35.7878 6.31572 35.5843 6.16569 35.4343C6.01566 35.2843 5.81217 35.2 5.6 35.2ZM10.4 35.2V36.8H18.4203C18.4355 36.2576 18.4842 35.7248 18.5594 35.2H10.4ZM5.6 38.4C5.38783 38.4 5.18434 38.4843 5.03431 38.6343C4.88428 38.7843 4.8 38.9878 4.8 39.2C4.8 39.4122 4.88428 39.6157 5.03431 39.7657C5.18434 39.9157 5.38783 40 5.6 40C5.81217 40 6.01566 39.9157 6.16569 39.7657C6.31572 39.6157 6.4 39.4122 6.4 39.2C6.4 38.9878 6.31572 38.7843 6.16569 38.6343C6.01566 38.4843 5.81217 38.4 5.6 38.4ZM24.0953 38.4C24.2625 39.56 24.6658 40.6424 25.2578 41.6H32.8V38.4H24.0953ZM5.6 41.6C5.38783 41.6 5.18434 41.6843 5.03431 41.8343C4.88428 41.9843 4.8 42.1878 4.8 42.4C4.8 42.6122 4.88428 42.8157 5.03431 42.9657C5.18434 43.1157 5.38783 43.2 5.6 43.2C5.81217 43.2 6.01566 43.1157 6.16569 42.9657C6.31572 42.8157 6.4 42.6122 6.4 42.4C6.4 42.1878 6.31572 41.9843 6.16569 41.8343C6.01566 41.6843 5.81217 41.6 5.6 41.6ZM5.6 44.8C5.38783 44.8 5.18434 44.8843 5.03431 45.0343C4.88428 45.1843 4.8 45.3878 4.8 45.6C4.8 45.8122 4.88428 46.0157 5.03431 46.1657C5.18434 46.3157 5.38783 46.4 5.6 46.4C5.81217 46.4 6.01566 46.3157 6.16569 46.1657C6.31572 46.0157 6.4 45.8122 6.4 45.6C6.4 45.3878 6.31572 45.1843 6.16569 45.0343C6.01566 44.8843 5.81217 44.8 5.6 44.8ZM45.1063 48.7859L50.4141 54.0234L49.2938 55.2141L44.0187 49.9406L45.1063 48.7859Z" fill="white"/>
</svg>
